<mxfile host="app.diagrams.net" modified="2024-07-10T12:11:41.267Z" agent="Mozilla/5.0 (X11; Ubuntu; Linux x86_64; rv:127.0) Gecko/20100101 Firefox/127.0" etag="utgG2mzm0wMp-P8smjGO" version="24.6.4" type="device">
  <diagram name="Page-1" id="ooL4G8PIWozAlzZJ3SFA">
    <mxGraphModel dx="1674" dy="793" grid="1" gridSize="10" guides="1" tooltips="1" connect="1" arrows="1" fold="1" page="1" pageScale="1" pageWidth="850" pageHeight="1100" math="0" shadow="0">
      <root>
        <mxCell id="0" />
        <mxCell id="1" parent="0" />
        <mxCell id="Y1JsUBpAfT_lPRWnW4V6-1" value="" style="rounded=0;whiteSpace=wrap;html=1;fillColor=#FFC02B;" parent="1" vertex="1">
          <mxGeometry x="230" y="90" width="160" height="280" as="geometry" />
        </mxCell>
        <mxCell id="Y1JsUBpAfT_lPRWnW4V6-5" value="" style="rounded=0;whiteSpace=wrap;html=1;fillColor=#030303;" parent="1" vertex="1">
          <mxGeometry x="360" y="250" width="50" height="120" as="geometry" />
        </mxCell>
        <mxCell id="Y1JsUBpAfT_lPRWnW4V6-7" value="" style="rounded=0;whiteSpace=wrap;html=1;fillColor=#030303;" parent="1" vertex="1">
          <mxGeometry x="210" y="250" width="50" height="120" as="geometry" />
        </mxCell>
        <mxCell id="Y1JsUBpAfT_lPRWnW4V6-8" value="" style="rounded=0;whiteSpace=wrap;html=1;fillColor=#030303;" parent="1" vertex="1">
          <mxGeometry x="210" y="90" width="50" height="120" as="geometry" />
        </mxCell>
        <mxCell id="Y1JsUBpAfT_lPRWnW4V6-9" value="" style="rounded=0;whiteSpace=wrap;html=1;fillColor=#030303;" parent="1" vertex="1">
          <mxGeometry x="360" y="90" width="50" height="120" as="geometry" />
        </mxCell>
      </root>
    </mxGraphModel>
  </diagram>
</mxfile>
